<?xml version="1.0" encoding="utf-8"?>
<!-- Generator: Adobe Illustrator 19.2.1, SVG Export Plug-In . SVG Version: 6.00 Build 0)  -->
<svg version="1.1"
	 id="Layer_1" inkscape:version="0.48.0 r9654" sodipodi:docname="albero.svg" xmlns:cc="http://creativecommons.org/ns#" xmlns:dc="http://purl.org/dc/elements/1.1/" xmlns:inkscape="http://www.inkscape.org/namespaces/inkscape" xmlns:rdf="http://www.w3.org/1999/02/22-rdf-syntax-ns#" xmlns:sodipodi="http://sodipodi.sourceforge.net/DTD/sodipodi-0.dtd" xmlns:svg="http://www.w3.org/2000/svg"
	 xmlns="http://www.w3.org/2000/svg" xmlns:xlink="http://www.w3.org/1999/xlink" x="0px" y="0px" viewBox="0 0 230.1 179"
	 style="enable-background:new 0 0 230.1 179;" xml:space="preserve">
<style type="text/css">
	.st0{fill:#FFFFFF;}
</style>
<title  id="title3070">Architetto Emilie Rollandin</title>
<sodipodi:namedview  bordercolor="#666666" borderopacity="1" fit-margin-bottom="0" fit-margin-left="0" fit-margin-right="0" fit-margin-top="0" gridtolerance="10" guidetolerance="10" id="namedview3064" inkscape:current-layer="Layer_1" inkscape:cx="-850.79642" inkscape:cy="-235.127" inkscape:pageopacity="0" inkscape:pageshadow="2" inkscape:window-height="1001" inkscape:window-maximized="1" inkscape:window-width="1680" inkscape:window-x="-4" inkscape:window-y="-4" inkscape:zoom="0.30645333" objecttolerance="10" pagecolor="#ffffff" showgrid="false">
	</sodipodi:namedview>
<path id="path3062" inkscape:connector-curvature="0" class="st0" d="M230.1,104.4c-2.5-1.6-3-3-1.3-5.4c-3.3-0.1-4.5-1.1-3.9-4.4
	c-3.4,1.9-5,1.5-6.5-2.2c-0.6,1.1-1.1,1.9-1.7,2.4c-1.8-4-4.2-7.1-6.7-7.2c-0.2-4,2.3-5,4.4-2.9c-0.3-7.3-10.1-8.6-5.9-16.1
	c-2.1-1.1-3.2-3.4-4.5-5.6c0.1,0,0.2,0,0.3,0c-1.6-2.4-1.1-3.9,1.4-5.4c-2.5-1.6-3-3-1.3-5.4c-3.3-0.1-4.5-1.1-3.9-4.4
	c-3.4,1.9-5,1.5-6.5-2.2c-1,1.9-2,2.9-3.1,3.1c-2.3-1.8-5.6-3.5-4.7-6.3c3.4-4.8-4.7-5.7-8.5-6.6c-2.8-0.6-8.1-5.5-8.7,0
	c0,4.5-7.9,6.7-7.9,3.7c-4.3-4.8-6.2-3.9-5.9-11.7c-4.8-0.3-6.3,2.6-11.8,1.5c-0.2-4.1-2.7-6.1-3-10.2c-6.1,2.6-7.4-2.5-10.3-4.4
	c-0.5-0.3-2.3,2.2-3,1.5c-0.3-0.3,0.3-2.8,0-2.9c-4.1-1.4-8.4-0.7-12.4-0.9c-2.5-1.6-2.9-3-1.2-5.4c-3.3-0.1-4.5-1.1-3.9-4.4
	c-3.4,1.9-5,1.5-6.5-2.2c-2,3.7-3.6,4.1-6.9,1.6c0.5,3.9-0.7,5-4.6,4.5c0.4,0.5,0.7,1,0.9,1.4c-2.4,1-3.8,0.2-5.1-2.9
	c-2,3.7-3.6,4.1-6.9,1.6c0.5,3.9-0.7,5-4.6,4.5c2.3,2.9,1.8,4.4-1.6,6c0.5,0.2,0.9,0.4,1.2,0.6h-7.5c-1.8,2.3-4,4.3-5.8,6.2
	c-2.6,1.2-4.1,0.5-5.4-2.8c-2,3.7-3.6,4.1-6.9,1.6c0.5,3.9-0.7,5-4.6,4.5c2.3,2.9,1.8,4.4-1.6,6c2.5,1.1,3.4,2.2,2.8,3.8
	c-5.4,2.7-4.9,5.6-2.3,11.4c-2.6,0.2-3.1-1.8-5.9-1.5c0.1,2.1,0.2,4.1-1.5,4.4c0,1.6,0.4,2.7,1.2,3.6c0.6,0.7-1.4,0.5,0.5,3
	c1.1,1.5,4.1-0.2,5.1,0.5c1,0.7,1.8,1.7,2,3.2c-0.7,0.1-2.4,1.2-4.5,2.2c-0.9,0.4-1.5-2.6-4.4-0.4c-2,0.3-0.2,2.1-1,2.1
	c-2,0.1-3.4-0.8-3.4-3.9c-2.2,1.4-4.1,3-5.9,4.8c-1.6,1.7-5.7,0.8-7.2,2.6c-5.8,6.1-0.4,6.2-1.9,7.9c-0.9,1-5.8,1-8.4,2.8
	c2.3,3.8-2.2,5-3.2,5.3c-0.3,5.1,0.5,11.2-4.4,11.7c3.5,4.7,3.9-1.1,10.3,2.9c0.4,3.9-2,4.8-5.9,4.4c4.5,6.7-5,8.7-5.9,11.7
	c-1,3.1,6,7.1,0,8.8c3.7-0.3,3.6,3.3,5.9,4.4c2.3-5.2-0.1-8.6,4.4-13.2c4.1,1.3-2.9,5.4,3,5.8c4-2.3-3.1-8.6,4.4-8.8v5.9
	c9.4,2.1,11-3.6,15.2-6.7c0.7,1,0.4,2.3-0.9,4.1c3.8-0.5,5,0.6,4.6,4.4c3.2-2.4,4.8-2,6.8,1.5c1.5-3.5,3.1-3.9,6.4-2.1
	c-0.4-3.3,0.7-4.3,4-4.3c-0.7-1.1-1-2-0.9-2.8c0.7-0.8,1.4-1.6,2-2.4c0.1-0.1,0.2-0.1,0.3-0.2c0,0-0.1,0-0.1-0.1
	c1.7-2.2,3.6-4.2,7-4.6c-0.9-3-2.3-5.5-7.4-4.4c9-6.8,13.3,14.6,17.7,21.9c13.9,5.3,32.2,15.7,35.5,32.2c2.3,11.6-4.3,9.4-4.4,24.1
	c8.3,0,10.1,0.1,22.2,0c0.7-10.7-5.5-25.5,4.4-38.7c-1.1-3.5-2.9-10.1,0-13.2c5.3,0.6,7.9,3.9,14.8,2.9c3.8,2.1,2-4,3-4.4
	c0.6-0.2,1.2-0.3,1.9-0.3c-0.1,0.2-0.3,0.4-0.4,0.6c3.8-0.5,5,0.6,4.6,4.4c3.2-2.4,4.8-2,6.8,1.5c1.5-3.5,3.1-3.9,6.4-2.1
	c-0.4-3.3,0.7-4.3,4-4.3c-1.6-2.4-1.1-3.9,1.4-5.4c-2.5-1.6-3-3-1.3-5.4c-3.3-0.1-4.5-1.1-3.9-4.4c-3.4,1.9-5,1.5-6.5-2.2
	c-0.5,1-1,1.7-1.5,2.2c-3.6-3.2-6.4-6.8-11.3-5c-0.1-6.5,1.8-10.9,7.4-11.7c4.8,0.1,3.2,6.6,4.4,10.2c5.9,4.1,10-4.5,14.8,1.5
	c7.9-5,11.1-6.1,13.3-11.7c6.5-0.3,0.2,5.2,0,7.3c0.6,0.2,1.1,0.4,1.6,0.6c1.4,0.6-0.4,2.9,2.6,3.9c1.3,0.9,4.2,0.4,5.5,1.4
	c1.4,1.1-1.5,2.5,2.3,5.2c4.7,2.5,4.5-0.9,5.8-0.4c1.9,0.8,3.9,1.3,6,1.4c0,0.5,0,1.1,0,1.8c3.2-2.4,4.8-2,6.8,1.5
	c1.5-3.5,3.1-3.9,6.4-2.1c-0.4-3.3,0.7-4.3,4-4.3C227,107.4,227.5,105.9,230.1,104.4L230.1,104.4z M10.4,94.9c0.6-1.8,1.9-3,4.4-2.9
	C14.2,93.7,13,94.9,10.4,94.9z M20.8,80.2c0.7-0.7,2,0,3,0c0,1,0.7,2.2,0,2.9c-0.7,0.7-2,0-3,0C20.8,82.2,20.1,80.9,20.8,80.2z
	 M22.3,109.5c-3.7,5.5-3.7-6.2,1.5-4.4C26.4,109,17.2,107.9,22.3,109.5z M23.7,103.6c-3.9,0.4-6.4-0.5-5.9-4.4
	c2.5,0.5,2.8-1.1,3-2.9C26,96.8,24.6,100.2,23.7,103.6z M149.4,42.2c3.1,0.8,3.1,2.3,1.5,4.4c-1,0-3,3.3-3,0
	C147.5,44.2,149.3,44.1,149.4,42.2L149.4,42.2z M140.5,77.3c3.4-0.5,5.7,0.2,7.4,1.5c-1,2.9-3.9,3.9-7.4,4.4V77.3z M124.2,78.8
	c5.3-1.2,7.3,3.1,4.4,5.8c4.4,1.5,2.6-3.3,3-5.8c2.4,3.7,10.8,0.6,10.3,10.2c-5.9,3.2-13.3,3.2-19.2,0
	C126.3,85.6,125,84.3,124.2,78.8z M119.8,80.2C126.6,81.2,118.6,89.1,119.8,80.2L119.8,80.2z M76.9,84.6c4.3-2.1,2.5,8.5,0,4.4
	C76.2,87.8,76.9,86.1,76.9,84.6z M91.7,83.2c-0.6,1.8-1.9,3-4.4,2.9C86.6,83,89.4,83.3,91.7,83.2z M81.4,87.5
	c2.4-2.4,7.5,3.3,10.3,0c0,1,0.7,2.2,0,2.9c-2.4,2.4-7.9,2.4-10.3,0C80.7,89.8,80.7,88.2,81.4,87.5z M102.1,96.3h4.4
	c-0.5,3.4-1.8,6-3,8.8C100.3,104.9,102.9,98.9,102.1,96.3z M103.5,45.1c-3.8-2.5,2.3-7.4,7.4-5.9C113.2,47.4,104.2,43.4,103.5,45.1z
	 M112.4,99.2c-2.4,1.1,0.3,7.2-4.4,5.9C107.6,101.3,108.5,98.8,112.4,99.2z M113.9,106.6c2.4-0.4,2.5,1.4,4.4,1.5
	C118.9,110.9,111.6,110.2,113.9,106.6z M35.6,80.2C40.7,85.7,31.5,87.7,35.6,80.2L35.6,80.2z M60.7,90.5c1.2-0.6,2,0,3,0
	c0.2-2.8-2.1-8.8,4.4-8.8c-2.9,2.7-0.9,7,4.4,5.9c-1.4,2.6-4.6,3.2-8.9,2.9c0,1,0.2,1.3-0.5,2c-0.7,0.7-1.8,1.6-2.5,0.9
	C60,92.7,59.2,90.6,60.7,90.5z M60.7,94.9c4.6,0.2,4.2-4.6,10.3-2.9c1.5,5.8-4.4,4.4-3,10.2C65.7,99.6,61.3,99.1,60.7,94.9z
	 M72.5,99.2c4,1.3-1.5,5.1-1.5,7.3C66.6,104.8,72.1,101,72.5,99.2z M69.6,109.5c4.7-8.4,14.1,3.5,17.7-2.9c-2.5,7.4,4.7,5.1,7.4,7.3
	C88.8,128.5,73.4,120.3,69.6,109.5z M119.8,146c-12-2.8-9.7-19.7-25.1-19c2.7-9.5,5.9-18.6,17.7-19c0.2,5.1-7.7,2.1-8.9,5.8
	c4.2,4.9,7.9,6.6,16.3,4.4C115.2,127.6,131.2,137.8,119.8,146z M128.7,94.9c-3.1,4-3.5,5.2-4.4,8.8c-5.5,0.6-8.7-1.2-8.9-5.8
	c3.9,0.4,3.8-3.1,4.4-5.9c5.6-1.1,7.1,1.8,11.8,1.5C134.3,94.5,130.7,95,128.7,94.9z M142,100.7c1.1-5-0.8-7-5.9-5.8
	c-2.3-5.2,5-0.9,4.4-4.4c3.9,0.5,5,3.8,5.9,7.3C144.9,98.7,144.9,101.1,142,100.7L142,100.7z M144.9,87.5c3.5,0,4.3-2.5,8.9-1.5
	C156,93.6,143.2,96.9,144.9,87.5z M196.6,86.1c-2.2-1.7-6.6-1.3-5.9-5.8C192.9,82,197.3,81.5,196.6,86.1z"/>
</svg>
